<svg width="63" height="80" viewBox="0 0 63 80" fill="none" xmlns="http://www.w3.org/2000/svg">
<path d="M28.7939 0.171867C18.8164 1.24999 10.4326 7.875 7.67676 16.8281C6.78027 19.75 6.73047 20.2969 6.61426 28.9844L6.51465 37.1094L5.35254 37.5156C4.72168 37.7344 3.8252 38.0469 3.37695 38.2031C2.36426 38.5469 1.48438 39.2656 1.10254 40.0781C0.803711 40.6719 0.787109 41.5625 0.787109 56.6406C0.787109 71.7656 0.803711 72.6094 1.10254 73.2031C1.45117 73.9219 2.21484 74.5937 3.09473 74.9375C4.42285 75.4687 9.07129 76.9062 11.0801 77.4219C26.1875 81.2656 41.959 80.7812 56.6846 76.0156C58.1289 75.5625 59.5732 75.0625 59.9053 74.9375C60.7852 74.5937 61.5488 73.9219 61.8975 73.2031C62.1963 72.6094 62.2129 71.7656 62.2129 56.6406C62.2129 41.5625 62.1963 40.6719 61.8975 40.0781C61.5156 39.2656 60.6357 38.5469 59.623 38.2031C59.1748 38.0469 58.2949 37.7344 57.6475 37.5156L56.4854 37.1094L56.3857 28.9844C56.2695 20.2969 56.2197 19.75 55.3232 16.8281C53.0986 9.59375 46.9062 3.57812 39.2695 1.18749C35.999 0.187492 32.1309 -0.203133 28.7939 0.171867ZM33.3428 8.20312C36.7461 8.45312 40.2822 10.0469 42.9219 12.5156C45.2295 14.6719 46.79 17.375 47.4541 20.3906C47.7363 21.625 47.7695 22.5625 47.7695 28.3125C47.7695 33.4375 47.7197 34.8437 47.5703 34.8437C47.4541 34.8437 46.5742 34.7031 45.6113 34.5312C42.5732 34 38.9043 33.6094 35.2188 33.4062C29.6904 33.125 22.8008 33.5625 17.3887 34.5312C16.4258 34.7031 15.5459 34.8437 15.4463 34.8437C15.2803 34.8437 15.2305 33.4375 15.2305 28.3125C15.2305 22.5625 15.2637 21.625 15.5459 20.3906C15.9775 18.4062 16.7412 16.6875 17.8701 15.0625C20.6592 11.0781 25.0254 8.57812 29.9229 8.15624C30.7529 8.07812 31.5664 8.03124 31.749 8.06249C31.9316 8.09374 32.6455 8.14062 33.3428 8.20312ZM32.6787 44.375C35.5508 44.875 37.709 46.9844 38.1572 49.75C38.4893 51.7187 37.6924 53.7344 36.0322 55.1719C35.5342 55.5937 35.0527 55.9375 34.9697 55.9375C34.8867 55.9375 34.8203 58.2656 34.8203 61.5937C34.8203 66.7812 34.7871 67.3125 34.5049 67.8906C34.1396 68.6406 33.6084 69.125 32.7949 69.4531C31.1348 70.0937 29.2422 69.4062 28.4951 67.8906C28.2129 67.3281 28.1797 66.7812 28.1797 61.7187V56.1719L27.1338 55.2969C24.7764 53.2969 24.1289 50.5469 25.4238 47.8906C26.4199 45.8437 28.8604 44.3281 31.3506 44.2344C31.5996 44.2187 32.1973 44.2969 32.6787 44.375Z" fill="white"/>
</svg>
