<svg width="374" height="127" viewBox="0 0 374 127" fill="none" xmlns="http://www.w3.org/2000/svg">
<g filter="url(#filter0_d_37_22)">
<path d="M50.55 45.7C50.55 47.2333 50.7667 48.35 51.2 49.05C51.6333 49.7167 52.3167 50.05 53.25 50.05C55.5833 50.05 57.1667 49.1 58 47.2C58.8667 45.3 59.3 42.7 59.3 39.4C59.3 37.8 59.2 35.5667 59 32.7C58.8 29.9667 58.7 27.9333 58.7 26.6C55.1333 26.6 53.35 25.9 53.35 24.5C53.35 23.6667 53.4833 23.1167 53.75 22.85C54.05 22.5833 54.5 22.45 55.1 22.45C55.4667 22.45 55.8667 22.4833 56.3 22.55C56.7333 22.5833 57.05 22.6 57.25 22.6C57.9167 22.7 58.55 22.75 59.15 22.75C60.25 22.75 61.2667 22.7 62.2 22.6C63.4 22.5333 64.3 22.5 64.9 22.5C66.1 22.5 66.9333 22.6167 67.4 22.85C67.9 23.0833 68.15 23.5333 68.15 24.2C68.15 24.9 67.9667 25.4 67.6 25.7C67.2667 25.9667 66.7667 26.1667 66.1 26.3L63.8 26.55C63.7667 28.75 63.9 31.3833 64.2 34.45C64.2333 34.9167 64.3 35.8 64.4 37.1C64.5 38.3667 64.55 39.5333 64.55 40.6C64.55 44.9333 63.6333 48.2833 61.8 50.65C59.9667 52.9833 57.2333 54.15 53.6 54.15C51.3333 54.15 49.4333 53.5 47.9 52.2C46.4 50.8667 45.65 48.8833 45.65 46.25C45.65 45.5167 45.9167 44.9333 46.45 44.5C46.9833 44.0333 47.7 43.8 48.6 43.8C49.2333 43.8 49.7167 44.0167 50.05 44.45C50.3833 44.8833 50.55 45.3 50.55 45.7ZM90.8875 37.95C91.1542 38.4167 91.3708 39.1 91.5375 40C91.7042 40.8667 91.7875 41.65 91.7875 42.35C91.7875 43.65 91.5042 45.5 90.9375 47.9C88.6375 52.1 85.2375 54.2 80.7375 54.2C79.0708 54.2 77.3708 53.65 75.6375 52.55C73.9042 51.45 72.7042 50.1833 72.0375 48.75C71.1375 45.8833 70.6875 44.0667 70.6875 43.3C70.6875 41.9667 70.9708 40.55 71.5375 39.05C72.1375 37.55 72.8875 36.25 73.7875 35.15C74.3542 34.3833 75.3708 33.7333 76.8375 33.2C78.3042 32.6333 79.6375 32.35 80.8375 32.35C83.1708 32.35 85.1542 32.8 86.7875 33.7C88.4208 34.5667 89.7875 35.9833 90.8875 37.95ZM86.5375 46C86.7042 45.5667 86.7875 44.45 86.7875 42.65C86.7875 41.6833 86.6042 40.7333 86.2375 39.8C85.9042 38.8667 85.4042 38.0667 84.7375 37.4C84.6708 37.3333 84.4875 37.2333 84.1875 37.1C83.8875 36.9333 83.4708 36.7833 82.9375 36.65C82.4375 36.4833 81.8542 36.4 81.1875 36.4C79.3208 36.4 77.9542 37.15 77.0875 38.65C76.2208 40.15 75.7875 41.85 75.7875 43.75C75.7875 44.0833 75.8708 44.7167 76.0375 45.65C76.2375 46.5833 76.4042 47.1667 76.5375 47.4C76.6375 47.6333 76.8875 47.9667 77.2875 48.4C77.7208 48.8 78.2375 49.1667 78.8375 49.5C79.4708 49.8 80.1208 49.95 80.7875 49.95C82.2875 49.95 83.4875 49.6 84.3875 48.9C85.2875 48.1667 86.0042 47.2 86.5375 46ZM104.073 52C104.073 52.5667 103.857 53.0667 103.423 53.5C102.99 53.9333 102.457 54.15 101.823 54.15C100.823 54.15 100.09 53.9667 99.6234 53.6C99.1568 53.2 98.9234 52.4833 98.9234 51.45C98.9234 50.2167 98.8901 48.6 98.8234 46.6C98.7568 44.9333 98.7234 43.5333 98.7234 42.4C98.7234 41.8667 98.7568 41.1667 98.8234 40.3C98.8901 39.5 98.9234 38.9 98.9234 38.5C98.8234 37.8667 98.5734 37.35 98.1734 36.95C97.7734 36.5167 97.2568 36.3 96.6234 36.3C96.3234 36.3 96.0734 36.1667 95.8734 35.9C95.6734 35.6 95.5734 35.3 95.5734 35C95.5734 34.2333 95.8734 33.65 96.4734 33.25C97.1068 32.85 97.8568 32.65 98.7234 32.65C100.523 32.65 101.773 33.7167 102.473 35.85C103.34 34.85 104.323 34.05 105.423 33.45C106.557 32.8167 107.64 32.5 108.673 32.5C109.907 32.5 111.023 32.8333 112.023 33.5C113.057 34.1667 113.573 35.0667 113.573 36.2C113.573 36.8333 113.29 37.4833 112.723 38.15C112.19 38.8167 111.64 39.15 111.073 39.15C110.773 39.15 110.507 39.0833 110.273 38.95C110.073 38.7833 109.823 38.55 109.523 38.25C109.19 37.9167 108.907 37.6833 108.673 37.55C108.44 37.3833 108.173 37.3 107.873 37.3C107.34 37.3 106.84 37.3833 106.373 37.55C105.907 37.7167 105.59 37.9167 105.423 38.15C104.89 38.9833 104.49 39.7333 104.223 40.4C103.99 41.0667 103.873 41.7833 103.873 42.55C103.873 43.1167 103.857 43.5667 103.823 43.9L103.773 46.75C103.773 47.1833 103.79 47.6667 103.823 48.2C103.857 48.7333 103.89 49.1333 103.923 49.4C104.023 50.3 104.073 51.1667 104.073 52ZM116.146 36.4C115.88 36.2 115.663 36 115.496 35.8C115.33 35.5667 115.246 35.1667 115.246 34.6C115.246 33.9667 115.463 33.4833 115.896 33.15C116.363 32.7833 116.896 32.6 117.496 32.6C118.663 32.6 119.663 32.9 120.496 33.5C121.363 34.1 121.996 34.9333 122.396 36C123.13 34.6333 124.063 33.7 125.196 33.2C126.33 32.6667 127.896 32.4 129.896 32.4C130.696 32.4 131.513 32.65 132.346 33.15C133.213 33.6167 133.996 34.2 134.696 34.9C135.263 35.6333 135.746 36.55 136.146 37.65C136.546 38.7167 136.746 39.6833 136.746 40.55C136.746 41.05 136.713 41.8667 136.646 43C136.58 44.2 136.546 45.15 136.546 45.85C136.546 48.1833 136.996 49.6167 137.896 50.15C138.03 50.2167 138.28 50.3 138.646 50.4C139.013 50.5 139.28 50.6 139.446 50.7C139.646 50.8 139.746 50.95 139.746 51.15C139.78 51.95 139.48 52.6167 138.846 53.15C138.246 53.65 137.513 53.9 136.646 53.9C135.346 53.9 134.33 53.55 133.596 52.85C132.863 52.15 132.346 51.0833 132.046 49.65C131.88 49.1167 131.796 48.3333 131.796 47.3C131.796 46.7333 131.83 45.8167 131.896 44.55C131.996 43.55 132.046 42.4833 132.046 41.35C132.046 40.1833 131.713 39.1667 131.046 38.3C130.38 37.4 129.463 36.95 128.296 36.95C127.596 36.95 126.863 37.1667 126.096 37.6C125.33 38 124.796 38.5 124.496 39.1C123.996 40.1333 123.663 41.1833 123.496 42.25C123.096 44.3167 122.896 46.3 122.896 48.2C122.896 48.6667 122.93 49.5667 122.996 50.9C122.996 51 122.996 51.25 122.996 51.65C122.996 52.0167 122.946 52.3667 122.846 52.7C122.78 53.0333 122.646 53.3333 122.446 53.6C122.313 53.7333 122.063 53.8667 121.696 54C121.33 54.1333 121.013 54.2 120.746 54.2C120.28 54.2 119.696 54 118.996 53.6C118.296 53.2 117.88 52.75 117.746 52.25L117.696 51.55C117.696 51.2833 117.73 50.8833 117.796 50.35C118.196 48.0167 118.396 45.9833 118.396 44.25C118.396 43.4833 118.38 42.9 118.346 42.5L118.296 40.2C118.296 39.5 118.096 38.8333 117.696 38.2C117.296 37.5333 116.78 36.9333 116.146 36.4ZM162.207 54.2C161.073 54.2 160.207 54.0333 159.607 53.7C159.007 53.3333 158.357 52.6667 157.657 51.7C156.79 52.4667 155.49 53.0833 153.757 53.55C152.057 54.0167 150.59 54.25 149.357 54.25C147.323 54.25 145.673 53.7 144.407 52.6C143.173 51.4667 142.557 49.8167 142.557 47.65C142.557 46.7167 142.807 45.8667 143.307 45.1C143.84 44.3 144.523 43.6 145.357 43C146.29 42.3667 147.39 41.8667 148.657 41.5C149.957 41.1333 151.14 40.95 152.207 40.95C154.007 40.95 155.607 41.1167 157.007 41.45V41.4C157.007 39.6 156.557 38.3667 155.657 37.7C154.79 37 153.39 36.65 151.457 36.65C150.223 36.65 149.157 37.2 148.257 38.3C147.923 38.7333 147.223 38.95 146.157 38.95C145.623 38.95 145.223 38.7333 144.957 38.3C144.723 37.8333 144.607 37.3667 144.607 36.9C144.607 35.9333 145.007 35.1 145.807 34.4C146.64 33.7 147.64 33.1833 148.807 32.85C149.973 32.4833 151.057 32.3 152.057 32.3C153.023 32.3 154.173 32.5 155.507 32.9C156.84 33.3 157.923 33.8333 158.757 34.5C159.757 35.3667 160.523 36.3833 161.057 37.55C161.623 38.6833 161.907 39.9333 161.907 41.3C161.907 41.7333 161.873 42.3833 161.807 43.25C161.74 44.25 161.707 45.0667 161.707 45.7C161.707 46 161.673 46.3833 161.607 46.85C161.54 47.45 161.507 47.95 161.507 48.35C161.507 48.7833 161.64 49.2 161.907 49.6C162.173 50 162.54 50.3333 163.007 50.6C163.44 50.8333 163.723 51.0833 163.857 51.35C163.99 51.6167 164.057 51.9167 164.057 52.25C164.057 52.5833 163.84 53 163.407 53.5C163.007 53.9667 162.607 54.2 162.207 54.2ZM152.207 44.65C150.907 44.65 149.757 44.9 148.757 45.4C147.757 45.9 147.257 46.7833 147.257 48.05C147.257 48.6833 147.473 49.2167 147.907 49.65C148.373 50.0833 148.873 50.3 149.407 50.3C150.84 50.3 152.04 50.15 153.007 49.85C153.973 49.55 155.14 49 156.507 48.2C156.673 47.6667 156.773 46.9167 156.807 45.95C156.807 45.5833 156.823 45.3 156.857 45.1C155.057 44.8 153.507 44.65 152.207 44.65ZM187.766 22.7C187.766 23.0333 187.716 23.45 187.616 23.95C187.583 24.15 187.549 24.3667 187.516 24.6C187.483 24.8333 187.449 25.1167 187.416 25.45C187.116 28.45 186.966 32.1667 186.966 36.6C186.966 40.8 187.149 43.9167 187.516 45.95C187.883 47.9833 188.449 49.2 189.216 49.6L190.166 50C190.666 50.1667 191.033 50.35 191.266 50.55C191.533 50.75 191.666 51.0833 191.666 51.55C191.666 52.2167 191.316 52.8 190.616 53.3C189.916 53.7667 189.149 54 188.316 54C187.449 54 186.599 53.65 185.766 52.95C184.933 52.2167 184.249 51.3 183.716 50.2C183.149 51.4 182.149 52.3667 180.716 53.1C179.283 53.8 177.916 54.15 176.616 54.15C175.449 54.15 174.433 54 173.566 53.7C172.699 53.3667 171.799 52.8667 170.866 52.2C169.733 51.4 168.866 50.3833 168.266 49.15C167.699 47.9167 167.416 46.5667 167.416 45.1C167.416 43.6333 167.699 42.0833 168.266 40.45C168.833 38.7833 169.483 37.4167 170.216 36.35C171.083 35.1167 172.233 34.2 173.666 33.6C175.099 32.9667 176.583 32.65 178.116 32.65C178.983 32.65 179.733 32.8167 180.366 33.15C180.999 33.45 181.649 33.8833 182.316 34.45C182.316 32.7833 182.283 31.3833 182.216 30.25C182.183 29.95 182.166 29.6 182.166 29.2C182.166 26.3333 182.399 24.0667 182.866 22.4C183.233 21 184.116 20.3 185.516 20.3C186.283 20.3 186.849 20.4667 187.216 20.8C187.583 21.1333 187.766 21.7667 187.766 22.7ZM172.266 45C172.266 46.7 172.816 48 173.916 48.9C174.416 49.3667 174.833 49.6833 175.166 49.85C175.499 50.0167 175.916 50.1 176.416 50.1C177.383 50.1 178.299 49.8333 179.166 49.3C180.066 48.7333 180.766 48 181.266 47.1C181.799 46.2 182.066 45.2333 182.066 44.2L182.016 39.25C181.316 38.45 180.666 37.9 180.066 37.6C179.499 37.2667 178.899 37.1 178.266 37.1C176.133 37.1 174.666 37.9167 173.866 39.55C173.433 40.3167 173.049 41.1833 172.716 42.15C172.416 43.1167 172.266 44.0667 172.266 45ZM217.713 51.6C217.713 52.3333 217.313 52.95 216.513 53.45C215.713 53.95 214.98 54.2 214.313 54.2C213.08 54.2 212.08 54.05 211.313 53.75C210.58 53.4167 209.88 52.8167 209.213 51.95C208.38 52.7167 207.213 53.3 205.713 53.7C204.213 54.0667 202.83 54.25 201.563 54.25C199.497 54.25 197.78 53.7 196.413 52.6C195.08 51.4667 194.413 49.8167 194.413 47.65C194.413 46.7167 194.697 45.7833 195.263 44.85C195.83 43.8833 196.53 43.1167 197.363 42.55C198.263 41.95 199.28 41.55 200.413 41.35C201.547 41.1167 202.863 41 204.363 41C205.063 41 205.897 41.1333 206.863 41.4C207.83 41.6667 208.597 41.95 209.163 42.25V41.45C209.163 39.65 208.713 38.4167 207.813 37.75C206.947 37.05 205.547 36.7 203.613 36.7C203.013 36.7 202.463 36.8 201.963 37C201.497 37.1667 200.947 37.4167 200.313 37.75C199.713 38.0833 199.147 38.25 198.613 38.25C198.147 38.25 197.697 38.0667 197.263 37.7C196.83 37.3 196.613 36.8833 196.613 36.45C196.613 35.05 197.48 34.0333 199.213 33.4C200.98 32.7333 202.78 32.4 204.613 32.4C205.547 32.4 206.613 32.6 207.813 33C209.013 33.3667 210.03 33.8833 210.863 34.55C211.863 35.3833 212.63 36.3833 213.163 37.55C213.73 38.7167 214.013 39.9833 214.013 41.35C214.013 41.7833 213.98 42.4333 213.913 43.3C213.847 44.2333 213.813 45.0333 213.813 45.7L213.763 47.05C213.697 47.7833 213.663 48.3667 213.663 48.8C213.663 49.2 213.797 49.55 214.063 49.85C214.363 50.1167 214.713 50.25 215.113 50.25L216.513 50.2C216.88 50.2 217.163 50.35 217.363 50.65C217.597 50.9167 217.713 51.2333 217.713 51.6ZM201.563 50.3C202.997 50.3 204.197 50.15 205.163 49.85C206.13 49.55 207.297 49 208.663 48.2C208.797 47.6333 208.88 46.8833 208.913 45.95C207.08 45.0833 205.563 44.65 204.363 44.65C203.23 44.65 202.313 44.7 201.613 44.8C200.913 44.8667 200.28 45.15 199.713 45.65C199.147 46.15 198.863 46.95 198.863 48.05C198.863 48.6833 199.163 49.2167 199.763 49.65C200.397 50.0833 200.997 50.3 201.563 50.3Z" fill="white"/>
</g>
<g filter="url(#filter1_d_37_22)">
<path d="M91.95 82.7C90.65 82.7 89.55 82.6667 88.65 82.6C87.7833 82.5 86.6333 82.35 85.2 82.15L85.15 87.4C85.1167 88.3 85.1 89.5833 85.1 91.25C85.1 92.1167 84.85 92.8 84.35 93.3C83.8833 93.7667 83.35 94 82.75 94C81.65 94 80.8333 93.8667 80.3 93.6C79.7667 93.3 79.5 92.7833 79.5 92.05C79.5 91.0833 79.5833 89.7167 79.75 87.95C80.1167 84.15 80.3 80.25 80.3 76.25C80.3 72.5167 80.1833 69 79.95 65.7C79.9833 65.2333 80.2167 64.7 80.65 64.1C81.1167 63.5 81.7 63.1667 82.4 63.1C83.1667 63.1 84.3833 62.9667 86.05 62.7C87.7833 62.4333 89.1 62.3 90 62.3C92.7333 62.3 94.85 62.5667 96.35 63.1C97.8833 63.6333 99.4167 64.5167 100.95 65.75C102.617 68.35 103.45 70.1833 103.45 71.25C103.45 73.4833 103 75.4667 102.1 77.2C101.2 78.9333 99.8833 80.2833 98.15 81.25C96.4167 82.2167 94.35 82.7 91.95 82.7ZM90.8 66.55C89.7333 66.55 88.8 66.6167 88 66.75C87.2333 66.85 86.3 67.0333 85.2 67.3C85.3333 70.3667 85.4 72.6 85.4 74C85.4 75.4333 85.35 76.6333 85.25 77.6C86.6833 77.9 87.8167 78.1 88.65 78.2C89.4833 78.2667 90.4167 78.3 91.45 78.3C93.9167 78.3 95.65 77.6667 96.65 76.4C97.6833 75.1 98.2 73.6 98.2 71.9C98.2 71.4 98.05 70.7833 97.75 70.05C97.45 69.3167 97.1833 68.8333 96.95 68.6C96.05 67.8 95.1667 67.2667 94.3 67C93.4667 66.7 92.3 66.55 90.8 66.55ZM114.614 92C114.614 92.5667 114.398 93.0667 113.964 93.5C113.531 93.9333 112.998 94.15 112.364 94.15C111.364 94.15 110.631 93.9667 110.164 93.6C109.698 93.2 109.464 92.4833 109.464 91.45C109.464 90.2167 109.431 88.6 109.364 86.6C109.298 84.9333 109.264 83.5333 109.264 82.4C109.264 81.8667 109.298 81.1667 109.364 80.3C109.431 79.5 109.464 78.9 109.464 78.5C109.364 77.8667 109.114 77.35 108.714 76.95C108.314 76.5167 107.798 76.3 107.164 76.3C106.864 76.3 106.614 76.1667 106.414 75.9C106.214 75.6 106.114 75.3 106.114 75C106.114 74.2333 106.414 73.65 107.014 73.25C107.648 72.85 108.398 72.65 109.264 72.65C111.064 72.65 112.314 73.7167 113.014 75.85C113.881 74.85 114.864 74.05 115.964 73.45C117.098 72.8167 118.181 72.5 119.214 72.5C120.448 72.5 121.564 72.8333 122.564 73.5C123.598 74.1667 124.114 75.0667 124.114 76.2C124.114 76.8333 123.831 77.4833 123.264 78.15C122.731 78.8167 122.181 79.15 121.614 79.15C121.314 79.15 121.048 79.0833 120.814 78.95C120.614 78.7833 120.364 78.55 120.064 78.25C119.731 77.9167 119.448 77.6833 119.214 77.55C118.981 77.3833 118.714 77.3 118.414 77.3C117.881 77.3 117.381 77.3833 116.914 77.55C116.448 77.7167 116.131 77.9167 115.964 78.15C115.431 78.9833 115.031 79.7333 114.764 80.4C114.531 81.0667 114.414 81.7833 114.414 82.55C114.414 83.1167 114.398 83.5667 114.364 83.9L114.314 86.75C114.314 87.1833 114.331 87.6667 114.364 88.2C114.398 88.7333 114.431 89.1333 114.464 89.4C114.564 90.3 114.614 91.1667 114.614 92ZM146.888 77.95C147.154 78.4167 147.371 79.1 147.538 80C147.704 80.8667 147.788 81.65 147.788 82.35C147.788 83.65 147.504 85.5 146.938 87.9C144.638 92.1 141.238 94.2 136.738 94.2C135.071 94.2 133.371 93.65 131.638 92.55C129.904 91.45 128.704 90.1833 128.038 88.75C127.138 85.8833 126.688 84.0667 126.688 83.3C126.688 81.9667 126.971 80.55 127.538 79.05C128.138 77.55 128.888 76.25 129.788 75.15C130.354 74.3833 131.371 73.7333 132.838 73.2C134.304 72.6333 135.638 72.35 136.838 72.35C139.171 72.35 141.154 72.8 142.788 73.7C144.421 74.5667 145.788 75.9833 146.888 77.95ZM142.538 86C142.704 85.5667 142.788 84.45 142.788 82.65C142.788 81.6833 142.604 80.7333 142.238 79.8C141.904 78.8667 141.404 78.0667 140.738 77.4C140.671 77.3333 140.488 77.2333 140.188 77.1C139.888 76.9333 139.471 76.7833 138.938 76.65C138.438 76.4833 137.854 76.4 137.188 76.4C135.321 76.4 133.954 77.15 133.088 78.65C132.221 80.15 131.787 81.85 131.787 83.75C131.787 84.0833 131.871 84.7167 132.038 85.65C132.238 86.5833 132.404 87.1667 132.538 87.4C132.638 87.6333 132.888 87.9667 133.288 88.4C133.721 88.8 134.238 89.1667 134.838 89.5C135.471 89.8 136.121 89.95 136.788 89.95C138.288 89.95 139.488 89.6 140.388 88.9C141.288 88.1667 142.004 87.2 142.538 86ZM171.873 81.45C171.873 82.9833 171.49 84.2833 170.723 85.35C169.957 86.3833 168.94 87.3 167.673 88.1C165.94 89.0333 163.923 89.5167 161.623 89.55C161.49 89.95 161.423 90.3667 161.423 90.8C161.423 91.2 161.64 91.5 162.073 91.7C162.54 91.8667 163.357 92 164.523 92.1C165.49 92.1667 166.573 92.3833 167.773 92.75C169.007 93.0833 169.973 93.4667 170.673 93.9C171.54 94.5333 172.14 95.2167 172.473 95.95C172.84 96.6833 173.023 97.6 173.023 98.7C173.023 100.133 172.357 101.333 171.023 102.3C169.723 103.3 168.19 104.033 166.423 104.5C164.657 104.967 163.107 105.2 161.773 105.2C160.173 105.2 158.807 105 157.673 104.6C156.573 104.233 155.523 103.717 154.523 103.05C153.823 102.55 153.273 101.917 152.873 101.15C152.473 100.383 152.273 99.5833 152.273 98.75C152.273 97.9167 152.54 97.1167 153.073 96.35C153.64 95.5833 154.323 94.9167 155.123 94.35C155.923 93.8167 156.673 93.45 157.373 93.25C157.107 92.9167 156.907 92.6333 156.773 92.4C156.673 92.1333 156.623 91.8333 156.623 91.5C156.623 90.3667 156.907 89.4167 157.473 88.65C155.873 88.1167 154.607 87.1667 153.673 85.8C152.773 84.4333 152.323 82.8333 152.323 81C152.323 79.8 152.607 78.7167 153.173 77.75C153.74 76.75 154.523 75.8 155.523 74.9C157.223 73.3667 159.573 72.6 162.573 72.6C162.973 72.6 163.523 72.6667 164.223 72.8C164.923 72.9333 165.607 73.1167 166.273 73.35C167.34 72.8833 168.59 72.4 170.023 71.9C171.457 71.4 172.423 71.15 172.923 71.15C173.69 71.15 174.257 71.2833 174.623 71.55C175.023 71.7833 175.223 72.3167 175.223 73.15C175.223 73.9167 174.773 74.4667 173.873 74.8C173.007 75.1333 171.69 75.45 169.923 75.75C171.223 77.3167 171.873 79.2167 171.873 81.45ZM161.473 85.45C163.407 85.45 164.807 85.05 165.673 84.25C166.573 83.45 167.023 82.25 167.023 80.65C167.023 78.0167 165.473 76.7 162.373 76.7C161.173 76.7 160.223 76.8333 159.523 77.1C158.857 77.3667 158.307 77.8167 157.873 78.45C157.273 79.25 156.973 80.3333 156.973 81.7C156.973 82.7667 157.407 83.6667 158.273 84.4C159.173 85.1 160.24 85.45 161.473 85.45ZM156.973 99.1C156.973 99.6667 157.49 100.15 158.523 100.55C159.59 100.983 160.723 101.2 161.923 101.2C163.257 101.2 164.623 100.95 166.023 100.45C167.457 99.9833 168.173 99.35 168.173 98.55C168.173 97.3833 167.14 96.6333 165.073 96.3C164.34 96.1667 163.273 95.9167 161.873 95.55C161.707 95.5167 161.507 95.4667 161.273 95.4C161.073 95.3333 160.857 95.2667 160.623 95.2C159.89 95.4667 159.09 96.0167 158.223 96.85C157.39 97.7167 156.973 98.4667 156.973 99.1ZM185.014 92C184.947 92.5667 184.714 93.0667 184.314 93.5C183.914 93.9333 183.397 94.15 182.764 94.15C181.764 94.15 181.031 93.9667 180.564 93.6C180.097 93.2 179.864 92.4833 179.864 91.45C179.864 90.05 179.947 88.5167 180.114 86.85C180.247 84.9167 180.314 83.4333 180.314 82.4C180.314 81.8667 180.281 81.2 180.214 80.4C180.147 79.6667 180.114 79.1167 180.114 78.75C180.014 78.1833 179.781 77.7333 179.414 77.4C179.081 77.0667 178.547 76.7833 177.814 76.55C177.514 76.4167 177.264 76.2 177.064 75.9C176.864 75.5667 176.764 75.2667 176.764 75C176.764 74.2333 177.064 73.65 177.664 73.25C178.264 72.85 178.997 72.65 179.864 72.65C180.831 72.65 181.664 72.9833 182.364 73.65C183.064 74.3167 183.597 75.15 183.964 76.15C184.731 75.05 185.664 74.1667 186.764 73.5C187.897 72.8333 188.997 72.5 190.064 72.5C191.431 72.5 192.581 72.7333 193.514 73.2C194.481 73.6333 194.964 74.4 194.964 75.5C194.964 76.1333 194.681 76.8 194.114 77.5C193.581 78.1667 193.031 78.5 192.464 78.5C192.031 78.5 191.514 78.3 190.914 77.9C190.681 77.7333 190.414 77.6 190.114 77.5C189.847 77.3667 189.564 77.3 189.264 77.3C188.731 77.3 188.231 77.3833 187.764 77.55C187.297 77.7167 186.981 77.9167 186.814 78.15C186.281 78.9833 185.881 79.7333 185.614 80.4C185.381 81.0667 185.264 81.7833 185.264 82.55C185.264 83.1167 185.247 83.5667 185.214 83.9L185.164 86.75L185.214 88.65C185.214 90.05 185.147 91.1667 185.014 92ZM216.937 94.2C215.804 94.2 214.937 94.0333 214.337 93.7C213.737 93.3333 213.087 92.6667 212.387 91.7C211.52 92.4667 210.22 93.0833 208.487 93.55C206.787 94.0167 205.32 94.25 204.087 94.25C202.054 94.25 200.404 93.7 199.137 92.6C197.904 91.4667 197.287 89.8167 197.287 87.65C197.287 86.7167 197.537 85.8667 198.037 85.1C198.57 84.3 199.254 83.6 200.087 83C201.02 82.3667 202.12 81.8667 203.387 81.5C204.687 81.1333 205.87 80.95 206.937 80.95C208.737 80.95 210.337 81.1167 211.737 81.45V81.4C211.737 79.6 211.287 78.3667 210.387 77.7C209.52 77 208.12 76.65 206.187 76.65C204.954 76.65 203.887 77.2 202.987 78.3C202.654 78.7333 201.954 78.95 200.887 78.95C200.354 78.95 199.954 78.7333 199.687 78.3C199.454 77.8333 199.337 77.3667 199.337 76.9C199.337 75.9333 199.737 75.1 200.537 74.4C201.37 73.7 202.37 73.1833 203.537 72.85C204.704 72.4833 205.787 72.3 206.787 72.3C207.754 72.3 208.904 72.5 210.237 72.9C211.57 73.3 212.654 73.8333 213.487 74.5C214.487 75.3667 215.254 76.3833 215.787 77.55C216.354 78.6833 216.637 79.9333 216.637 81.3C216.637 81.7333 216.604 82.3833 216.537 83.25C216.47 84.25 216.437 85.0667 216.437 85.7C216.437 86 216.404 86.3833 216.337 86.85C216.27 87.45 216.237 87.95 216.237 88.35C216.237 88.7833 216.37 89.2 216.637 89.6C216.904 90 217.27 90.3333 217.737 90.6C218.17 90.8333 218.454 91.0833 218.587 91.35C218.72 91.6167 218.787 91.9167 218.787 92.25C218.787 92.5833 218.57 93 218.137 93.5C217.737 93.9667 217.337 94.2 216.937 94.2ZM206.937 84.65C205.637 84.65 204.487 84.9 203.487 85.4C202.487 85.9 201.987 86.7833 201.987 88.05C201.987 88.6833 202.204 89.2167 202.637 89.65C203.104 90.0833 203.604 90.3 204.137 90.3C205.57 90.3 206.77 90.15 207.737 89.85C208.704 89.55 209.87 89 211.237 88.2C211.404 87.6667 211.504 86.9167 211.537 85.95C211.537 85.5833 211.554 85.3 211.587 85.1C209.787 84.8 208.237 84.65 206.937 84.65ZM254.096 92.25C253.596 91.3167 253.28 90.2833 253.146 89.15C253.013 87.9833 252.946 86.3833 252.946 84.35C252.946 82.4167 252.68 80.7333 252.146 79.3C251.613 77.8667 250.513 77.15 248.846 77.15C248.213 77.15 247.58 77.35 246.946 77.75C246.346 78.1167 245.896 78.5833 245.596 79.15C245.13 80.05 244.813 81.0333 244.646 82.1C244.48 83.1333 244.396 84.3333 244.396 85.7C244.396 86.5667 244.446 87.45 244.546 88.35C244.546 88.6167 244.563 89.05 244.596 89.65C244.663 90.2167 244.696 90.7333 244.696 91.2C244.696 93.2 243.996 94.2 242.596 94.2C240.763 94.2 239.796 93.2333 239.696 91.3C239.696 89.9333 239.713 89.2 239.746 89.1V86.95C239.746 85.75 239.696 84.5833 239.596 83.45C239.496 82.3167 239.38 81.4667 239.246 80.9C238.946 79.8 238.546 78.95 238.046 78.35C237.58 77.75 236.83 77.45 235.796 77.45C234.33 77.45 233.146 78.0833 232.246 79.35C231.613 80.35 231.196 81.5667 230.996 83C230.796 84.8333 230.646 86.2833 230.546 87.35C230.48 88.3833 230.446 89.5833 230.446 90.95C230.446 91.9167 230.28 92.7 229.946 93.3C229.646 93.9 229.063 94.2 228.196 94.2C227.563 94.2 226.896 94.0333 226.196 93.7C225.53 93.3333 225.196 92.85 225.196 92.25C225.196 91.6167 225.263 90.9833 225.396 90.35C225.696 88.45 225.846 85.05 225.846 80.15C225.846 79.35 225.646 78.5833 225.246 77.85C224.88 77.0833 224.43 76.7 223.896 76.7C223.763 76.7 223.513 76.7667 223.146 76.9C222.813 77.0333 222.563 77.1 222.396 77.1C221.963 77.1 221.563 76.9 221.196 76.5C220.863 76.1 220.696 75.7667 220.696 75.5C220.696 74.6667 221.096 73.9667 221.896 73.4C222.73 72.8 223.596 72.5 224.496 72.5C225.73 72.5 226.78 72.8833 227.646 73.65C228.513 74.4167 229.18 75.4833 229.646 76.85C230.413 75.5167 231.446 74.45 232.746 73.65C234.046 72.8167 235.496 72.4 237.096 72.4C238.096 72.4 238.896 72.5333 239.496 72.8C240.13 73.0333 240.646 73.3833 241.046 73.85C241.446 74.2833 241.963 74.95 242.596 75.85C243.43 74.7833 244.496 73.95 245.796 73.35C247.13 72.75 248.496 72.45 249.896 72.45C251.563 72.45 253.063 73.1333 254.396 74.5C255.73 75.8333 256.63 77.3833 257.096 79.15C257.33 80.05 257.446 81.7833 257.446 84.35L257.646 87.25C257.813 88.9833 258.38 90.0333 259.346 90.4C260.48 90.7333 261.046 91.0833 261.046 91.45C261.046 92.25 260.846 92.8333 260.446 93.2C260.146 93.4 259.73 93.6167 259.196 93.85C258.663 94.0833 258.246 94.2 257.946 94.2C256.146 94.2 254.863 93.55 254.096 92.25ZM287.288 91.6C287.288 92.3333 286.888 92.95 286.088 93.45C285.288 93.95 284.554 94.2 283.888 94.2C282.654 94.2 281.654 94.05 280.888 93.75C280.154 93.4167 279.454 92.8167 278.788 91.95C277.954 92.7167 276.788 93.3 275.288 93.7C273.788 94.0667 272.404 94.25 271.138 94.25C269.071 94.25 267.354 93.7 265.988 92.6C264.654 91.4667 263.988 89.8167 263.988 87.65C263.988 86.7167 264.271 85.7833 264.838 84.85C265.404 83.8833 266.104 83.1167 266.938 82.55C267.838 81.95 268.854 81.55 269.988 81.35C271.121 81.1167 272.438 81 273.938 81C274.638 81 275.471 81.1333 276.438 81.4C277.404 81.6667 278.171 81.95 278.738 82.25V81.45C278.738 79.65 278.288 78.4167 277.388 77.75C276.521 77.05 275.121 76.7 273.188 76.7C272.588 76.7 272.038 76.8 271.538 77C271.071 77.1667 270.521 77.4167 269.888 77.75C269.288 78.0833 268.721 78.25 268.188 78.25C267.721 78.25 267.271 78.0667 266.838 77.7C266.404 77.3 266.188 76.8833 266.188 76.45C266.188 75.05 267.054 74.0333 268.788 73.4C270.554 72.7333 272.354 72.4 274.188 72.4C275.121 72.4 276.188 72.6 277.388 73C278.588 73.3667 279.604 73.8833 280.438 74.55C281.438 75.3833 282.204 76.3833 282.738 77.55C283.304 78.7167 283.588 79.9833 283.588 81.35C283.588 81.7833 283.554 82.4333 283.488 83.3C283.421 84.2333 283.388 85.0333 283.388 85.7L283.338 87.05C283.271 87.7833 283.238 88.3667 283.238 88.8C283.238 89.2 283.371 89.55 283.638 89.85C283.938 90.1167 284.288 90.25 284.688 90.25L286.088 90.2C286.454 90.2 286.738 90.35 286.938 90.65C287.171 90.9167 287.288 91.2333 287.288 91.6ZM271.138 90.3C272.571 90.3 273.771 90.15 274.738 89.85C275.704 89.55 276.871 89 278.238 88.2C278.371 87.6333 278.454 86.8833 278.488 85.95C276.654 85.0833 275.138 84.65 273.938 84.65C272.804 84.65 271.888 84.7 271.188 84.8C270.488 84.8667 269.854 85.15 269.287 85.65C268.721 86.15 268.438 86.95 268.438 88.05C268.438 88.6833 268.738 89.2167 269.338 89.65C269.971 90.0833 270.571 90.3 271.138 90.3ZM311.215 93.75C310.515 93.75 309.849 93.55 309.215 93.15C308.615 92.7167 308.082 92.2667 307.615 91.8C307.149 91.3 306.832 90.9667 306.665 90.8C305.965 91.8 304.949 92.6167 303.615 93.25C302.282 93.8833 300.999 94.2 299.765 94.2C297.865 94.2 296.182 93.8 294.715 93C293.249 92.2 292.115 91.1167 291.315 89.75C290.515 88.35 290.115 86.8 290.115 85.1C290.115 83.5 290.299 81.9667 290.665 80.5C291.065 79 291.599 77.75 292.265 76.75C293.165 75.4833 294.365 74.4833 295.865 73.75C297.399 73.0167 298.915 72.65 300.415 72.65C301.315 72.65 302.165 72.8167 302.965 73.15C303.765 73.4833 304.465 73.9 305.065 74.4C305.065 72.2 305.049 70.8167 305.015 70.25V69.15C305.015 66.0167 305.215 63.7333 305.615 62.3C305.982 60.9 306.882 60.2 308.315 60.2C309.082 60.2 309.649 60.3667 310.015 60.7C310.382 61.0333 310.565 61.6667 310.565 62.6C310.565 62.9333 310.482 63.85 310.315 65.35C309.949 69.0833 309.765 72.8167 309.765 76.55C309.765 79.6833 309.815 82.0167 309.915 83.55C310.049 85.05 310.299 86.25 310.665 87.15C311.065 88.05 311.682 88.85 312.515 89.55C313.015 89.95 313.365 90.2833 313.565 90.55C313.799 90.8167 313.915 91.1667 313.915 91.6C313.915 92.1333 313.649 92.6333 313.115 93.1C312.582 93.5333 311.949 93.75 311.215 93.75ZM299.615 90.15C301.382 90.15 302.682 89.6 303.515 88.5C304.382 87.3667 304.815 85.9333 304.815 84.2L304.765 81.4C304.732 80.8667 304.715 80.15 304.715 79.25C303.482 77.7833 302.149 77.05 300.715 77.05C299.749 77.05 298.832 77.3 297.965 77.8C297.132 78.3 296.449 79.0333 295.915 80C295.349 81.1 295.065 82.7667 295.065 85C295.065 86.5333 295.515 87.7833 296.415 88.75C297.315 89.6833 298.382 90.15 299.615 90.15ZM340.023 91.6C340.023 92.3333 339.623 92.95 338.823 93.45C338.056 93.95 337.34 94.2 336.673 94.2C335.406 94.2 334.39 94.05 333.623 93.75C332.89 93.4167 332.206 92.8167 331.573 91.95C330.706 92.7167 329.523 93.3 328.023 93.7C326.523 94.0667 325.14 94.25 323.873 94.25C321.806 94.25 320.106 93.7 318.773 92.6C317.44 91.4667 316.773 89.8167 316.773 87.65C316.773 86.7167 317.023 85.8667 317.523 85.1C318.023 84.3 318.706 83.6 319.573 83C320.54 82.3667 321.64 81.8833 322.873 81.55C324.106 81.1833 325.39 81 326.723 81C327.423 81 328.256 81.1333 329.223 81.4C330.19 81.6667 330.94 81.95 331.473 82.25V81.45C331.473 79.65 331.04 78.4167 330.173 77.75C329.306 77.05 327.906 76.7 325.973 76.7C325.406 76.7 324.84 76.8167 324.273 77.05C323.74 77.2833 323.123 77.6 322.423 78C321.49 78.5 320.606 78.75 319.773 78.75C319.473 78.75 319.19 78.55 318.923 78.15C318.656 77.7167 318.523 77.3333 318.523 77C318.523 76.0333 318.973 75.2 319.873 74.5C320.806 73.8 321.906 73.2833 323.173 72.95C324.44 72.5833 325.573 72.4 326.573 72.4C327.573 72.4 328.723 72.6 330.023 73C331.323 73.3667 332.39 73.8833 333.223 74.55C334.223 75.4167 334.99 76.4333 335.523 77.6C336.09 78.7333 336.373 79.9833 336.373 81.35C336.373 81.7833 336.34 82.4333 336.273 83.3C336.206 84.2333 336.173 85.0333 336.173 85.7C336.173 86 336.14 86.45 336.073 87.05C336.006 87.7833 335.973 88.3667 335.973 88.8C335.973 89.2 336.123 89.55 336.423 89.85C336.723 90.1167 337.073 90.25 337.473 90.25L338.873 90.2C339.24 90.2 339.523 90.3333 339.723 90.6C339.923 90.8667 340.023 91.2 340.023 91.6ZM323.923 90.3C325.356 90.3 326.556 90.15 327.523 89.85C328.49 89.55 329.656 89 331.023 88.2C331.156 87.6333 331.24 86.8833 331.273 85.95C329.44 85.0833 327.923 84.65 326.723 84.65C325.356 84.65 324.14 84.9 323.073 85.4C322.006 85.9 321.473 86.7833 321.473 88.05C321.473 88.6833 321.74 89.2167 322.273 89.65C322.806 90.0833 323.356 90.3 323.923 90.3Z" fill="white"/>
</g>
<rect x="324.97" y="113.082" width="15.2537" height="7.91804" fill="#26D92D"/>
<ellipse cx="344.582" cy="59.918" rx="7.62687" ry="7.91804" fill="#E31521"/>
<path d="M363.649 72.3607L372.613 91.873H354.685L363.649 72.3607Z" fill="#FAFF1E"/>
<path d="M357.865 93.3968C357.863 93.3354 357.822 93.287 357.774 93.2887L356.989 93.3166C356.941 93.3183 356.903 93.3695 356.906 93.4309C356.908 93.4923 356.949 93.5407 356.997 93.539L357.695 93.5142L357.726 94.404C357.728 94.4654 357.769 94.5138 357.817 94.5121C357.865 94.5104 357.903 94.4592 357.901 94.3978L357.865 93.3968ZM341.62 115.748L349.731 104.612L349.602 104.46L341.491 115.596L341.62 115.748ZM349.731 104.612L357.842 93.4764L357.713 93.3235L349.602 104.46L349.731 104.612Z" fill="black"/>
<path d="M352.37 63.9637C352.322 63.9637 352.283 64.0135 352.283 64.075V65.0768C352.283 65.1383 352.322 65.1881 352.37 65.1881C352.419 65.1881 352.458 65.1383 352.458 65.0768V64.1863L353.156 64.1863C353.204 64.1863 353.243 64.1365 353.243 64.075C353.243 64.0135 353.204 63.9637 353.156 63.9637L352.37 63.9637ZM361.895 76.0713L357.164 70.0338L357.04 70.1912L361.772 76.2287L361.895 76.0713ZM357.164 70.0338L352.432 63.9963L352.309 64.1537L357.04 70.1912L357.164 70.0338Z" fill="black"/>
<g filter="url(#filter2_d_37_22)">
<path d="M325.041 117.677C325.08 117.638 325.08 117.575 325.041 117.536L324.404 116.899C324.365 116.86 324.302 116.86 324.263 116.899C324.224 116.938 324.224 117.002 324.263 117.041L324.829 117.607L324.263 118.172C324.224 118.211 324.224 118.275 324.263 118.314C324.302 118.353 324.365 118.353 324.404 118.314L325.041 117.677ZM308.627 117.707H324.97V117.507H308.627V117.707Z" fill="black"/>
</g>
<rect x="301" y="113.082" width="6.53731" height="7.91804" fill="#A2DAE1"/>
<rect width="8.15875" height="8.73929" transform="matrix(-0.999563 0.0295593 -0.0350719 -0.999385 89.9999 8.73386)" fill="#A2DAE1"/>
<rect width="19.0371" height="8.73929" transform="matrix(-0.999563 0.0295593 -0.0350719 -0.999385 60.0979 9.61911)" fill="#26D92D"/>
<path d="M59.849 4.55978C59.8113 4.59996 59.8136 4.66324 59.854 4.70111L60.5124 5.3183C60.5528 5.35618 60.6161 5.3543 60.6538 5.31412C60.6914 5.27394 60.6892 5.21066 60.6488 5.17279L60.0635 4.62417L60.6091 4.04211C60.6468 4.00193 60.6446 3.93865 60.6042 3.90078C60.5638 3.8629 60.5005 3.86478 60.4628 3.90496L59.849 4.55978ZM80.3071 3.92548L59.9187 4.52841L59.9257 4.72829L80.3141 4.12536L80.3071 3.92548Z" fill="black"/>
<ellipse cx="9.51854" cy="8.73929" rx="9.51854" ry="8.73929" transform="matrix(-0.999563 0.0295593 -0.0350719 -0.999385 47.5113 77.4372)" fill="#E31521"/>
<path d="M12.9191 27.2589L24.1073 48.7929L1.73083 48.7929L12.9191 27.2589Z" fill="#FAFF1E"/>
<path d="M19.8393 32.5461C19.8432 32.6044 19.8884 32.6488 19.94 32.6452L20.7821 32.5863C20.8337 32.5826 20.8724 32.5324 20.8684 32.4741C20.8644 32.4158 20.8193 32.3715 20.7676 32.3751L20.0192 32.4274L19.9614 31.5826C19.9574 31.5243 19.9123 31.48 19.8606 31.4836C19.809 31.4872 19.7703 31.5374 19.7743 31.5957L19.8393 32.5461ZM39.2364 7.3041L29.549 19.8868L29.6915 20.0269L39.3789 7.44419L39.2364 7.3041ZM29.549 19.8868L19.8616 32.4695L20.0041 32.6096L29.6915 20.0269L29.549 19.8868Z" fill="black"/>
<path d="M27.8172 64.7925C27.869 64.7908 27.9094 64.742 27.9075 64.6836L27.8771 63.7315C27.8752 63.6731 27.8318 63.6271 27.78 63.6288C27.7282 63.6306 27.6878 63.6794 27.6896 63.7378L27.7167 64.5841L26.9668 64.6093C26.915 64.611 26.8745 64.6598 26.8764 64.7182C26.8783 64.7766 26.9218 64.8226 26.9735 64.8208L27.8172 64.7925ZM15.4776 51.7936L21.6138 58.2787L21.7415 58.1246L15.6054 51.6396L15.4776 51.7936ZM21.6138 58.2787L27.7499 64.7638L27.8777 64.6097L21.7415 58.1246L21.6138 58.2787Z" fill="black"/>
<defs>
<filter id="filter0_d_37_22" x="41.65" y="20.3" width="180.063" height="41.95" filterUnits="userSpaceOnUse" color-interpolation-filters="sRGB">
<feFlood flood-opacity="0" result="BackgroundImageFix"/>
<feColorMatrix in="SourceAlpha" type="matrix" values="0 0 0 0 0 0 0 0 0 0 0 0 0 0 0 0 0 0 127 0" result="hardAlpha"/>
<feOffset dy="4"/>
<feGaussianBlur stdDeviation="2"/>
<feComposite in2="hardAlpha" operator="out"/>
<feColorMatrix type="matrix" values="0 0 0 0 0 0 0 0 0 0 0 0 0 0 0 0 0 0 0.25 0"/>
<feBlend mode="normal" in2="BackgroundImageFix" result="effect1_dropShadow_37_22"/>
<feBlend mode="normal" in="SourceGraphic" in2="effect1_dropShadow_37_22" result="shape"/>
</filter>
<filter id="filter1_d_37_22" x="75.5" y="60.2" width="268.523" height="53" filterUnits="userSpaceOnUse" color-interpolation-filters="sRGB">
<feFlood flood-opacity="0" result="BackgroundImageFix"/>
<feColorMatrix in="SourceAlpha" type="matrix" values="0 0 0 0 0 0 0 0 0 0 0 0 0 0 0 0 0 0 127 0" result="hardAlpha"/>
<feOffset dy="4"/>
<feGaussianBlur stdDeviation="2"/>
<feComposite in2="hardAlpha" operator="out"/>
<feColorMatrix type="matrix" values="0 0 0 0 0 0 0 0 0 0 0 0 0 0 0 0 0 0 0.25 0"/>
<feBlend mode="normal" in2="BackgroundImageFix" result="effect1_dropShadow_37_22"/>
<feBlend mode="normal" in="SourceGraphic" in2="effect1_dropShadow_37_22" result="shape"/>
</filter>
<filter id="filter2_d_37_22" x="304.627" y="116.87" width="24.4433" height="9.47278" filterUnits="userSpaceOnUse" color-interpolation-filters="sRGB">
<feFlood flood-opacity="0" result="BackgroundImageFix"/>
<feColorMatrix in="SourceAlpha" type="matrix" values="0 0 0 0 0 0 0 0 0 0 0 0 0 0 0 0 0 0 127 0" result="hardAlpha"/>
<feOffset dy="4"/>
<feGaussianBlur stdDeviation="2"/>
<feComposite in2="hardAlpha" operator="out"/>
<feColorMatrix type="matrix" values="0 0 0 0 0 0 0 0 0 0 0 0 0 0 0 0 0 0 0.25 0"/>
<feBlend mode="normal" in2="BackgroundImageFix" result="effect1_dropShadow_37_22"/>
<feBlend mode="normal" in="SourceGraphic" in2="effect1_dropShadow_37_22" result="shape"/>
</filter>
</defs>
</svg>
